<?xml version="1.0" encoding="utf-8"?>
<!-- Generator: Adobe Illustrator 19.1.1, SVG Export Plug-In . SVG Version: 6.00 Build 0)  -->
<svg version="1.1"
	 id="svg3026" sodipodi:docname="Back.svg" inkscape:version="0.48.4 r9939" xmlns:rdf="http://www.w3.org/1999/02/22-rdf-syntax-ns#" xmlns:svg="http://www.w3.org/2000/svg" xmlns:dc="http://purl.org/dc/elements/1.1/" xmlns:cc="http://creativecommons.org/ns#" xmlns:inkscape="http://www.inkscape.org/namespaces/inkscape" xmlns:sodipodi="http://sodipodi.sourceforge.net/DTD/sodipodi-0.dtd"
	 xmlns="http://www.w3.org/2000/svg" xmlns:xlink="http://www.w3.org/1999/xlink" x="0px" y="0px" viewBox="-295 387 20 20"
	 style="enable-background:new -295 387 20 20;" xml:space="preserve">
<style type="text/css">
	.st0{fill:#FFFFFF;}
</style>
<sodipodi:namedview  borderopacity="1" inkscape:zoom="26.304372" showgrid="true" inkscape:cy="6.8249439" bordercolor="#666666" objecttolerance="10" inkscape:cx="11.841239" gridtolerance="10" guidetolerance="10" pagecolor="#ffffff" id="namedview3034" inkscape:current-layer="g3028" inkscape:window-maximized="1" inkscape:window-y="-8" inkscape:window-x="-8" inkscape:window-height="961" inkscape:window-width="1280" inkscape:pageshadow="2" inkscape:pageopacity="0">
	<inkscape:grid  type="xygrid" id="grid3040"></inkscape:grid>
</sodipodi:namedview>
<g id="g3028">
	<path id="path4003" inkscape:connector-curvature="0" class="st0" d="M-276.7,397c0,0.8-0.1,1.5-0.3,2.2c-0.2,0.7-0.5,1.4-0.8,2
		c-0.4,0.6-0.8,1.2-1.3,1.7c-0.5,0.5-1.1,0.9-1.7,1.3c-0.6,0.4-1.3,0.6-2,0.8c-0.7,0.2-1.4,0.3-2.2,0.3s-1.5-0.1-2.2-0.3
		c-0.7-0.2-1.4-0.5-2-0.8c-0.6-0.4-1.2-0.8-1.7-1.3c-0.5-0.5-0.9-1.1-1.3-1.7s-0.6-1.3-0.8-2c-0.2-0.7-0.3-1.4-0.3-2.2
		s0.1-1.5,0.3-2.2c0.2-0.7,0.5-1.4,0.8-2s0.8-1.2,1.3-1.7s1.1-0.9,1.7-1.3s1.3-0.6,2-0.8c0.7-0.2,1.4-0.3,2.2-0.3s1.5,0.1,2.2,0.3
		c0.7,0.2,1.4,0.5,2,0.8s1.2,0.8,1.7,1.3c0.5,0.5,0.9,1.1,1.3,1.7c0.4,0.6,0.6,1.3,0.8,2C-276.8,395.5-276.7,396.2-276.7,397z
		 M-279.5,397L-279.5,397l-4-4.2h-2.9l3.1,3.1h-6.7v2.2h6.7l-3.1,3.1h2.9L-279.5,397z M-275,397c0-0.9-0.1-1.8-0.4-2.6
		c-0.2-0.8-0.6-1.6-1-2.4c-0.4-0.7-1-1.4-1.6-2c-0.6-0.6-1.3-1.1-2-1.6c-0.7-0.4-1.5-0.8-2.4-1c-0.8-0.2-1.7-0.4-2.6-0.4
		c-0.9,0-1.8,0.1-2.6,0.4c-0.8,0.2-1.6,0.6-2.4,1s-1.4,1-2,1.6c-0.6,0.6-1.1,1.3-1.6,2c-0.4,0.7-0.8,1.5-1,2.4
		c-0.2,0.8-0.4,1.7-0.4,2.6c0,0.9,0.1,1.8,0.4,2.6c0.2,0.8,0.6,1.6,1,2.4c0.4,0.7,1,1.4,1.6,2c0.6,0.6,1.3,1.1,2,1.6
		c0.7,0.4,1.5,0.8,2.4,1c0.8,0.2,1.7,0.4,2.6,0.4c0.9,0,1.8-0.1,2.6-0.4c0.8-0.2,1.6-0.6,2.4-1c0.7-0.4,1.4-1,2-1.6s1.1-1.3,1.6-2
		c0.4-0.7,0.8-1.5,1-2.4C-275.1,398.8-275,397.9-275,397z"/>
</g>
</svg>
